<?xml version="1.0" encoding="utf-8"?>
<!-- Generator: Adobe Illustrator 21.1.0, SVG Export Plug-In . SVG Version: 6.00 Build 0)  -->
<svg version="1.1" id="Layer_1" xmlns="http://www.w3.org/2000/svg" xmlns:xlink="http://www.w3.org/1999/xlink" x="0px" y="0px"
	 viewBox="0 0 1280 800" style="enable-background:new 0 0 1280 800;" xml:space="preserve">
<style type="text/css">
	.st0{fill:#F6A200;}
</style>
<path class="st0" d="M929.7,229.4h-14.5c-2.2-30.1-4.6-62.8-7.2-98.2c-2.3-19.2-10.2-61.9-62.8-94.8C815.8,18,743.6,8.1,686.8,5.8
	H562.9C506.1,8.1,457.1,18,427.7,36.4c-52.6,33-62.2,75.7-64.5,94.8c0,0-2.9,40.9-6.9,98.2H341c-19.1,0-34.7,15.5-34.7,34.7v99
	c0,16,19.2,45.2,36.7,54.6c-6.2,88.5-11.4,165-11.5,172.3c-0.4,17.4-15.4,81.3,42.3,121.5v64c0,9.6,7.8,17.3,17.3,17.3h49.1
	c9.6,0,17.3-7.8,17.3-17.3v-40.7c10.3,0.6,21.6,1.1,34.5,1.7h283.4c12.3-0.5,22.9-1,32.5-1.6v40.7c0,9.6,7.8,17.3,17.3,17.3h49.1
	c9.6,0,17.3-7.8,17.3-17.3v-65.1c56.1-40.2,44.7-103.1,44.3-120.4c-0.2-12.1-0.3-46.3-8.2-172.4c17.4-9.5,36.4-38.5,36.4-54.4v-99
	C964.4,245,948.8,229.4,929.7,229.4z M519.1,87.4c0-9.6,7.8-17.3,17.3-17.3H730c9.6,0,17.3,7.8,17.3,17.3v14.4
	c0,9.6-7.8,17.3-17.3,17.3H536.4c-9.6,0-17.3-7.8-17.3-17.3V87.4z M435.6,652.3c-27.9,0-50.6-22.6-50.6-50.6s22.6-50.6,50.6-50.6
	s50.6,22.6,50.6,50.6S463.6,652.3,435.6,652.3z M743.4,488.7c-18.3,11.5-52.4,15.9-87.7,17.3h-48c-35.3-1.4-69.2-5.9-87.5-17.3
	c-32.7-20.5-35.2-43.6-36.6-55.5c0,0-19.5-132.9-19.7-144s-10.2-52.6,28.9-77.4c18.4-11.3,35.5-12.2,70.9-13.6h136
	c35.4,1.4,52.5,2.3,70.9,13.6c39.1,24.8,29.1,66.3,28.9,77.4c-0.2,11.1-19.7,144-19.7,144C778.4,445.2,776.1,468.2,743.4,488.7z
	 M781.5,601.7c0-27.9,22.6-50.6,50.6-50.6s50.6,22.6,50.6,50.6c0,27.9-22.6,50.6-50.6,50.6S781.5,629.6,781.5,601.7z"/>
</svg>
