<?xml version="1.0" encoding="utf-8"?>
<!-- Generator: Adobe Illustrator 17.0.2, SVG Export Plug-In . SVG Version: 6.00 Build 0)  -->
<!DOCTYPE svg PUBLIC "-//W3C//DTD SVG 1.1//EN" "http://www.w3.org/Graphics/SVG/1.1/DTD/svg11.dtd">
<svg version="1.1" id="Layer_1" xmlns="http://www.w3.org/2000/svg" xmlns:xlink="http://www.w3.org/1999/xlink" x="0px" y="0px"
	 width="1280px" height="800px" viewBox="0 0 1280 800" enable-background="new 0 0 1280 800" xml:space="preserve">
<path fill="#509E2F" d="M929.688,229.441h-14.506c-2.169-30.138-4.562-62.756-7.214-98.168
	c-2.301-19.157-10.193-61.879-62.763-94.833C815.809,18.01,743.586,8.085,686.777,5.799H562.918
	c-56.81,2.285-105.82,12.211-135.217,30.64c-52.569,32.954-62.248,75.676-64.549,94.833c0,0-2.905,40.898-6.949,98.168h-15.229
	c-19.149,0-34.67,15.523-34.67,34.67v99.019c0,15.963,19.2,45.179,36.689,54.553c-6.16,88.523-11.379,165.039-11.527,172.27
	c-0.359,17.429-15.409,81.339,42.284,121.504v64.003c0,9.574,7.762,17.335,17.335,17.335h49.117c9.573,0,17.335-7.761,17.335-17.335
	v-40.742c10.285,0.639,21.568,1.134,34.543,1.658h283.389c12.342-0.497,22.896-0.978,32.527-1.571v40.656
	c0,9.574,7.761,17.335,17.335,17.335h49.116c9.574,0,17.335-7.761,17.335-17.335v-65.097c56.1-40.222,44.656-103.137,44.302-120.41
	c-0.248-12.07-0.349-46.35-8.163-172.418c17.421-9.52,36.437-38.518,36.437-54.405v-99.019
	C964.358,244.964,948.836,229.441,929.688,229.441z M519.068,87.418c0-9.574,7.761-17.335,17.335-17.335h193.576
	c9.573,0,17.335,7.761,17.335,17.335v14.446c0,9.574-7.762,17.335-17.335,17.335H536.403c-9.574,0-17.335-7.761-17.335-17.335
	V87.418z M435.637,652.254c-27.924,0-50.56-22.636-50.56-50.56c0-27.924,22.636-50.561,50.56-50.561
	c27.924,0,50.561,22.637,50.561,50.561C486.198,629.618,463.561,652.254,435.637,652.254z M743.411,488.706
	c-18.266,11.451-52.36,15.886-87.659,17.306h-47.953c-35.299-1.42-69.219-5.854-87.485-17.306
	c-32.664-20.475-35.211-43.555-36.64-55.459c0,0-19.462-132.912-19.689-144.013c-0.227-11.101-10.186-52.587,28.914-77.382
	c18.413-11.296,35.46-12.17,70.885-13.599h135.983c35.426,1.429,52.472,2.303,70.885,13.599
	c39.1,24.794,29.143,66.281,28.914,77.382c-0.227,11.101-19.688,144.013-19.688,144.013
	C778.448,445.152,776.075,468.231,743.411,488.706z M781.473,601.694c0-27.924,22.637-50.561,50.561-50.561
	s50.56,22.637,50.56,50.561c0,27.924-22.636,50.56-50.56,50.56S781.473,629.618,781.473,601.694z"/>
</svg>
