<?xml version="1.0" encoding="utf-8"?>
<!-- Generator: Adobe Illustrator 17.0.2, SVG Export Plug-In . SVG Version: 6.00 Build 0)  -->
<!DOCTYPE svg PUBLIC "-//W3C//DTD SVG 1.1//EN" "http://www.w3.org/Graphics/SVG/1.1/DTD/svg11.dtd">
<svg version="1.1" id="Layer_1" xmlns="http://www.w3.org/2000/svg" xmlns:xlink="http://www.w3.org/1999/xlink" x="0px" y="0px"
	 width="1280px" height="800px" viewBox="0 0 1280 800" enable-background="new 0 0 1280 800" xml:space="preserve">
<g>
	<path fill="#908880" d="M906.131,206.939c-0.849-16.934-4.157-84.882-58.296-119.257C819.73,69.836,793.186,68.926,738.59,66.724
		h-6.731c-14.014-37.321-49.924-63.929-92.14-63.929s-78.126,26.608-92.14,63.929h-5.04c-54.596,2.202-81.139,3.112-109.245,20.958
		c-54.139,34.375-57.446,102.323-58.295,119.257c-0.857,17.09-32.865,372.028-32.865,372.028
		c2.203,18.345,6.342,59.256,56.683,90.814c28.151,17.647,83.633,27.665,138.034,29.853h207.427
		c54.402-2.188,109.883-12.206,138.034-29.853c50.341-31.557,54.479-72.468,56.682-90.814
		C938.995,578.966,906.988,224.029,906.131,206.939z M639.719,51.426c27.543,0,49.87,22.328,49.87,49.87
		s-22.328,49.869-49.87,49.869s-49.87-22.327-49.87-49.869S612.176,51.426,639.719,51.426z M439.206,619.658
		c-27.543,0-49.87-22.328-49.87-49.87s22.328-49.869,49.87-49.869s49.87,22.327,49.87,49.869S466.749,619.658,439.206,619.658z
		 M788.171,290.941c-0.201,9.855-17.477,127.841-17.477,127.841c-1.27,10.567-3.376,31.055-32.372,49.231
		c-16.215,10.166-46.481,14.102-77.815,15.363h-42.568c-31.335-1.261-61.446-5.197-77.661-15.363
		c-28.995-18.175-31.257-38.663-32.526-49.231c0,0-17.276-117.986-17.478-127.841c-0.201-9.855-9.042-46.682,25.667-68.692
		c16.346-10.028,31.478-10.803,62.926-12.072h120.713c31.447,1.269,46.579,2.044,62.925,12.072
		C797.214,244.259,788.375,281.086,788.171,290.941z M838.243,619.658c-27.543,0-49.87-22.328-49.87-49.87
		s22.328-49.869,49.87-49.869s49.869,22.327,49.869,49.869S865.786,619.658,838.243,619.658z"/>
	<path fill="#908880" d="M810.62,724.025h-6.613c-14.755,1.658-29.891,2.814-44.966,3.42H522.574
		c-15.076-0.606-30.211-1.762-44.966-3.42h-7.492l0.697-0.867c-34.446-4.29-66.217-11.467-89.423-21.525
		c-2.582,2.074-4.949,4.316-6.857,6.691l-55.686,68.856c-7.982,9.931-5.653,17.991,5.203,18.001l75.639,0.071
		c10.857,0.011,19.289-8.029,27.273-17.96l4.086-4.666h418.64l4.086,4.666c7.982,9.931,16.415,17.972,27.272,17.96l75.641-0.071
		c10.857-0.01,13.186-8.07,5.203-18.001l-55.687-68.856c-1.838-2.287-4.136-4.433-6.604-6.444
		c-23.334,10.002-55.132,17.145-89.591,21.386L810.62,724.025z"/>
</g>
</svg>
